:SAMPLES-PER-SECOND 24
:FULLY-SPECIFIED
:DEGREES
555
root  1.17815 39.6923 19.0544 -173.066 -38.5973 173.739
RightUpLeg  -15.1307 -12.0788 -12.0757
RightLeg  18.1471 4.24657 1.35786
RightFoot  -1.47984 -0.760133 8.67774
RightToes  -1.74623e-010 0 -2.59999e-017
Spine  8.50212 2.86194 7.61138
Spine1  15.7541 5.7553 -6.73855
HEad  -26.4902 -28.5647 11.9968
LeftShoulder1  1.79183 -2.72236 -22.4686
LeftArm  2.04461 9.71781 -42.5257
LeftForeArm  50.8586 -74.3065 -36.2588
LeftHand  0.303264 11.1148 7.05312
RightShoulder  2.76052 4.98265 26.5228
RightArm  -17.2448 6.72642 27.2531
RightForeArm  16.8849 1.51633 11.6553
RightHand  -0.380839 -2.05618 -13.1155
LeftUpLeg  -18.1414 -2.2549 0.550922
LeftLeg  12.3249 -5.70951 -1.86
LeftFoot  -4.79231 0.825305 -13.8797
LeftToes  -6.27559e-011 -2.10356e-011 8.24929e-012
556
root  1.61584 39.8605 18.9622 -172.213 -39.706 172.486
RightUpLeg  -14.6886 -11.9732 -12.3909
RightLeg  17.051 3.07221 0.930717
RightFoot  -0.718208 -0.766049 8.17306
RightToes  -1.74623e-010 0 -2.59999e-017
Spine  8.74093 2.55607 6.70027
Spine1  15.3255 5.00708 -5.67216
HEad  -26.8206 -28.7998 12.8284
LeftShoulder1  1.8229 -2.90784 -22.1019
LeftArm  1.31867 12.4379 -43.6794
LeftForeArm  51.1566 -75.0859 -39.2008
LeftHand  0.344289 10.922 8.10024
RightShoulder  2.5613 4.66283 25.3078
RightArm  -23.4641 13.0556 25.0673
RightForeArm  10.9311 4.90299 11.0171
RightHand  -0.558344 -1.67324 -17.2946
LeftUpLeg  -17.1128 0.376002 0.372987
LeftLeg  11.2608 5.38298 0.016812
LeftFoot  -3.16554 0.780728 -10.6367
LeftToes  -6.27559e-011 -2.10356e-011 8.24929e-012
557
root  1.9338 39.9796 18.9005 -172.038 -41.6101 171.467
RightUpLeg  -13.3199 -12.378 -12.8832
RightLeg  16.1527 1.7959 0.602551
RightFoot  -0.193093 -0.754709 7.70671
RightToes  -1.74623e-010 0 -2.59999e-017
Spine  8.80168 1.84473 6.02625
Spine1  15.0958 3.81382 -4.52958
HEad  -26.4626 -29.5166 13.5439
LeftShoulder1  1.85776 -3.18392 -21.4099
LeftArm  3.21601 12.3968 -44.387
LeftForeArm  50.5406 -75.209 -39.9265
LeftHand  0.340411 10.9957 7.93946
RightShoulder  2.43046 4.40967 24.6281
RightArm  -21.318 16.3799 24.6465
RightForeArm  -5.60595 15.6125 8.80468
RightHand  -0.887763 -0.564919 -21.2797
LeftUpLeg  -15.008 3.17409 0.5952
LeftLeg  12.6576 1.13105 -0.836276
LeftFoot  -2.26541 0.928057 -11.4913
LeftToes  -6.27559e-011 -2.10356e-011 8.24929e-012
558
root  2.09774 40.0175 18.8644 -172.027 -42.8856 171.088
RightUpLeg  -12.671 -12.7124 -13.0291
RightLeg  16.015 0.770678 0.36607
RightFoot  -0.157537 -0.743172 7.56849
RightToes  -1.74623e-010 0 -2.59999e-017
Spine  8.18196 1.37485 6.02561
Spine1  14.5927 3.05264 -3.87586
HEad  -25.2541 -30.2786 13.4256
LeftShoulder1  1.84173 -3.25931 -20.8272
LeftArm  6.62024 10.018 -45.0083
LeftForeArm  51.9961 -75.3957 -40.3091
LeftHand  0.22174 10.9481 5.62611
RightShoulder  2.40327 4.36115 24.4602
RightArm  -19.7254 17.4519 24.751
RightForeArm  -17.5412 28.6708 6.65491
RightHand  -1.12359 0.383943 -22.5129
LeftUpLeg  -12.4913 5.84904 1.68583
LeftLeg  14.5503 -4.76919 -1.84415
LeftFoot  -1.4543 1.07137 -12.2506
LeftToes  -6.27559e-011 -2.10356e-011 8.24929e-012
559
root  2.16312 40.048 18.8907 -171.829 -44.1006 170.798
RightUpLeg  -12.1078 -12.5181 -13.2522
RightLeg  15.5004 -0.446399 0.115336
RightFoot  -0.0463856 -0.772252 7.79423
RightToes  -1.74623e-010 0 -2.59999e-017
Spine  7.23339 0.813155 5.60916
Spine1  13.6087 2.1524 -3.21002
HEad  -23.3621 -30.2715 12.6401
LeftShoulder1  1.79173 -3.18145 -20.3669
LeftArm  9.64283 6.77811 -46.4835
LeftForeArm  54.6229 -75.8358 -41.547
LeftHand  0.108812 10.2594 3.73753
RightShoulder  2.40581 4.39215 24.4083
RightArm  -23.9835 17.9832 24.8537
RightForeArm  -14.0329 39.2403 9.95573
RightHand  -1.19121 0.84843 -22.0975
LeftUpLeg  -9.92272 7.86239 3.20279
LeftLeg  16.0185 -3.0802 -0.961166
LeftFoot  0.605161 1.19081 -11.3995
LeftToes  -6.27559e-011 -2.10356e-011 8.24929e-012
560
root  2.181 40.1043 19.0214 -171.618 -46.1524 170.309
RightUpLeg  -10.832 -12.0722 -13.8547
RightLeg  14.4226 -2.64339 -0.276706
RightFoot  0.333738 -0.826177 8.0899
RightToes  -1.74623e-010 0 -2.59999e-017
Spine  6.62102 -0.150747 4.46164
Spine1  12.4543 0.70481 -2.10591
HEad  -21.9401 -29.9069 12.2911
LeftShoulder1  1.75473 -3.16179 -19.8571
LeftArm  12.2825 2.92857 -48.8996
LeftForeArm  56.764 -76.3249 -43.3802
LeftHand  0.113262 9.86819 4.12924
RightShoulder  2.40158 4.38824 24.3306
RightArm  -23.2185 17.5286 25.9103
RightForeArm  -7.1429 49.0136 13.4504
RightHand  -1.27926 1.21852 -22.4026
LeftUpLeg  -7.34949 9.28482 4.88984
LeftLeg  17.3232 -0.096168 0.250814
LeftFoot  2.32848 1.28675 -10.8297
LeftToes  -6.27559e-011 -2.10356e-011 8.24929e-012
561
root  2.13912 40.1383 19.2753 -171.729 -48.5133 169.955
RightUpLeg  -9.34317 -11.9654 -14.5878
RightLeg  13.5618 -4.92592 -0.583464
RightFoot  0.81337 -0.909907 8.58167
RightToes  -1.74623e-010 0 -2.59999e-017
Spine  6.59247 -1.20526 3.09218
Spine1  11.3336 -0.873277 -0.64381
HEad  -21.3416 -29.8537 12.4651
LeftShoulder1  1.74175 -3.2251 -19.3846
LeftArm  15.3415 -1.64257 -51.8441
LeftForeArm  57.7343 -76.734 -45.4463
LeftHand  0.200315 9.92567 6.21959
RightShoulder  2.40262 4.40389 24.2813
RightArm  -20.8769 15.3268 27.5678
RightForeArm  2.5513 57.5068 17.7348
RightHand  -1.30272 1.18828 -22.9032
LeftUpLeg  -4.62425 10.1274 6.69152
LeftLeg  18.0055 1.66997 0.935959
LeftFoot  3.03882 1.23482 -9.92857
LeftToes  -6.27559e-011 -2.10356e-011 8.24929e-012
562
root  2.06528 40.0646 19.6624 -171.953 -51.0382 169.788
RightUpLeg  -8.46619 -13.2182 -15.293
RightLeg  13.8166 -5.73685 -0.749311
RightFoot  0.760504 -0.977393 9.24924
RightToes  -1.74623e-010 0 -2.59999e-017
Spine  6.90156 -2.11732 1.59583
Spine1  10.1939 -2.35349 1.07184
HEad  -20.8573 -30.3528 12.587
LeftShoulder1  1.73346 -3.28685 -19.0003
LeftArm  19.2048 -7.20533 -55.4213
LeftForeArm  54.1783 -76.3417 -44.4638
LeftHand  0.232432 9.16359 8.25212
RightShoulder  2.41482 4.45212 24.2468
RightArm  -17.7241 12.299 28.8441
RightForeArm  10.3202 62.9814 21.8309
RightHand  -1.14405 0.465812 -22.5738
LeftUpLeg  -2.79629 10.2873 8.25235
LeftLeg  19.0798 4.00114 1.87496
LeftFoot  5.13455 1.27616 -9.00247
LeftToes  -6.27559e-011 -2.10356e-011 8.24929e-012
563
root  2.02311 39.7603 20.154 -172.099 -53.458 169.35
RightUpLeg  -9.27522 -16.9381 -16.016
RightLeg  17.3772 -3.6066 -1.27566
RightFoot  -1.01853 -0.898234 9.84161
RightToes  -1.74623e-010 0 -2.59999e-017
Spine  7.91548 -2.58193 -0.326551
Spine1  8.80905 -3.34367 2.36242
HEad  -20.5752 -31.3357 12.893
LeftShoulder1  1.6993 -3.30545 -18.3842
LeftArm  23.9413 -13.9959 -59.8495
LeftForeArm  47.3877 -75.1244 -40.5621
LeftHand  0.17048 7.91058 9.18351
RightShoulder  2.42456 4.49559 24.2008
RightArm  -14.218 8.70921 29.3857
RightForeArm  13.7278 65.5989 24.5804
RightHand  -1.02579 0.030018 -21.8744
LeftUpLeg  -1.70231 10.9245 9.56282
LeftLeg  21.0068 4.1378 2.09186
LeftFoot  5.99466 1.77936 -11.7799
LeftToes  -6.27559e-011 -2.10356e-011 8.24929e-012
564
root  1.99984 39.0199 20.6989 -172.214 -54.8934 168.358
RightUpLeg  -12.3844 -18.2279 -17.7414
RightLeg  25.8401 -2.674 -1.63151
RightFoot  -4.53629 -0.652904 10.4328
RightToes  -1.74623e-010 0 -2.59999e-017
Spine  9.74123 -2.42185 -2.67425
Spine1  7.29636 -3.57909 2.51372
HEad  -20.5748 -31.9143 13.1436
LeftShoulder1  1.64751 -3.3476 -17.4009
LeftArm  28.5457 -20.8215 -64.2579
LeftForeArm  44.0927 -74.8206 -40.2169
LeftHand  0.136539 7.33722 9.69986
RightShoulder  2.40421 4.53614 23.7718
RightArm  -10.8173 5.08437 30.3853
RightForeArm  13.3746 64.9919 23.8303
RightHand  -0.960883 0.276771 -19.6536
LeftUpLeg  -0.497203 13.6107 10.6109
LeftLeg  23.4087 0.0697122 0.375183
LeftFoot  -0.0534414 1.71332 -17.2245
LeftToes  -6.27559e-011 -2.10356e-011 8.24929e-012
565
root  2.00799 37.8103 21.2861 -171.815 -56.6263 166.913
RightUpLeg  -16.6813 -19.1553 -19.9606
RightLeg  36.4871 -2.08267 -1.91198
RightFoot  -8.55618 -0.326449 10.9898
RightToes  -1.74623e-010 0 -2.59999e-017
Spine  11.0631 -2.33639 -5.06309
Spine1  6.608 -3.90144 2.37056
HEad  -20.4956 -31.9644 12.9689
LeftShoulder1  1.56626 -3.34885 -16.1058
LeftArm  32.5462 -27.6647 -68.1558
LeftForeArm  43.8842 -75.7112 -44.6719
LeftHand  0.127518 7.15301 10.0395
RightShoulder  2.37472 4.62641 23.0358
RightArm  -8.7633 2.52427 32.0224
RightForeArm  12.2381 61.4871 20.1047
RightHand  -0.665338 -0.0837389 -14.4502
LeftUpLeg  -1.80762 16.2367 10.8159
LeftLeg  28.8086 -4.18412 -2.12894
LeftFoot  -10.2274 0.265882 -18.8465
LeftToes  -6.27559e-011 -2.10356e-011 8.24929e-012
566
root  2.12773 36.4587 21.8451 -170.674 -60.0294 165.304
RightUpLeg  -20.2213 -21.0987 -21.9558
RightLeg  45.838 -2.07367 -2.61009
RightFoot  -12.2812 0.0111167 11.4654
RightToes  -1.74623e-010 0 -2.59999e-017
Spine  11.1092 -2.44901 -6.85907
Spine1  7.63383 -4.32156 2.26292
HEad  -21.9597 -33.1676 14.24
LeftShoulder1  1.39339 -2.98288 -14.5925
LeftArm  38.0736 -36.2452 -73.2463
LeftForeArm  44.7461 -76.7082 -50.8953
LeftHand  0.151159 7.44913 9.98114
RightShoulder  2.4401 4.78845 23.2644
RightArm  -9.17867 -0.572165 32.476
RightForeArm  15.2351 58.0288 16.793
RightHand  -0.336885 -0.698848 -8.35571
LeftUpLeg  -7.06056 16.2781 10.255
LeftLeg  38.1401 -5.54849 -4.26023
LeftFoot  -17.8204 -0.825647 -16.4399
LeftToes  -6.27559e-011 -2.10356e-011 8.24929e-012
567
root  2.25398 35.4799 22.2242 -170.626 -62.7965 164.907
RightUpLeg  -22.0494 -22.5895 -22.8934
RightLeg  51.6796 -2.41208 -3.64163
RightFoot  -14.298 0.211079 11.9059
RightToes  -1.74623e-010 0 -2.59999e-017
Spine  10.5471 -1.8075 -6.86413
Spine1  9.84204 -3.38525 1.03217
HEad  -25.8578 -35.4133 17.5853
LeftShoulder1  1.23917 -2.44972 -13.869
LeftArm  44.2731 -43.2007 -78.9108
LeftForeArm  53.6811 -78.1867 -62.3794
LeftHand  0.190543 8.14966 9.28341
RightShoulder  2.62129 4.97412 24.8379
RightArm  -9.97128 -4.35783 32.4142
RightForeArm  19.1738 50.2572 11.932
RightHand  -0.376278 1.03748 -7.06963
LeftUpLeg  -11.3837 15.6321 10.5604
LeftLeg  45.9492 -6.42443 -6.64789
LeftFoot  -21.5419 -1.23047 -15.1386
LeftToes  -6.27559e-011 -2.10356e-011 8.24929e-012
